<?xml version="1.0" encoding="UTF-8" standalone="no"?>
<svg
   xmlns:dc="http://purl.org/dc/elements/1.1/"
   xmlns:cc="http://creativecommons.org/ns#"
   xmlns:rdf="http://www.w3.org/1999/02/22-rdf-syntax-ns#"
   xmlns:svg="http://www.w3.org/2000/svg"
   xmlns="http://www.w3.org/2000/svg"
   xmlns:sodipodi="http://sodipodi.sourceforge.net/DTD/sodipodi-0.dtd"
   xmlns:inkscape="http://www.inkscape.org/namespaces/inkscape"
   width="512"
   height="256"
   viewBox="0 0 135.46666 67.733335"
   version="1.1"
   id="svg8"
   inkscape:version="1.0.1 (c497b03c, 2020-09-10)"
   sodipodi:docname="logo4.svg">
  <defs
     id="defs2" />
  <sodipodi:namedview
     id="base"
     pagecolor="#ffffff"
     bordercolor="#666666"
     borderopacity="1.0"
     inkscape:pageopacity="0.03137255"
     inkscape:pageshadow="2"
     inkscape:zoom="1.86"
     inkscape:cx="254.49082"
     inkscape:cy="126.13129"
     inkscape:document-units="mm"
     inkscape:current-layer="layer1"
     inkscape:document-rotation="0"
     showgrid="true"
     units="px"
     inkscape:window-width="1252"
     inkscape:window-height="789"
     inkscape:window-x="0"
     inkscape:window-y="25"
     inkscape:window-maximized="0"
     inkscape:pagecheckerboard="true">
    <inkscape:grid
       type="xygrid"
       id="grid840" />
  </sodipodi:namedview>
  <metadata
     id="metadata5">
    <rdf:RDF>
      <cc:Work
         rdf:about="">
        <dc:format>image/svg+xml</dc:format>
        <dc:type
           rdf:resource="http://purl.org/dc/dcmitype/StillImage" />
        <dc:title></dc:title>
      </cc:Work>
    </rdf:RDF>
  </metadata>
  <g
     inkscape:label="Layer 1"
     inkscape:groupmode="layer"
     id="layer1">
    <path
       style="fill:#e00000;fill-opacity:1;stroke:none;stroke-width:0.265;stroke-linecap:butt;stroke-linejoin:miter;stroke-miterlimit:4;stroke-dasharray:none;stroke-opacity:1"
       d="M 17.197917,26.458333 V 11.90625 l 3.96875,-3.96875 h 11.90625 v 5.291667 h -7.9375 L 22.489583,15.875 v 6.614583 l 2.645834,2.645834 h 1.322916 l 2.645834,-2.645834 0,-1.322916 h -3.96875 l 0,-5.291667 h 7.9375 v 10.583333 l -3.96875,3.96875 h -7.9375 z"
       id="path833"
       sodipodi:nodetypes="ccccccccccccccccccc"
       inkscape:export-xdpi="96"
       inkscape:export-ydpi="96" />
    <path
       id="path835"
       style="fill:#666666;fill-opacity:1;stroke:none;stroke-width:0.26458300000000001px;stroke-linecap:butt;stroke-linejoin:miter;stroke-opacity:1"
       d="m 50.270833,7.9375 h -11.90625 v 3.96875 H 47.625 l 1.322917,1.322917 v 1.322917 l -7.86257,0.07286 -2.720764,2.57297 V 27.78125 l 2.448089,2.645833 h 9.341371 L 52.916666,27.78125 V 10.583334 Z m -1.322916,10.583333 c 0,2.204862 0,4.409723 0,6.614584 L 47.625,26.458333 H 43.65625 L 42.333333,25.135417 V 19.84375 l 1.322917,-1.322917 z"
       sodipodi:nodetypes="cccccccccccccccccccccc"
       inkscape:export-xdpi="96"
       inkscape:export-ydpi="96" />
    <path
       style="fill:#666666;fill-opacity:1;stroke:none;stroke-width:0.26458300000000001px;stroke-linecap:butt;stroke-linejoin:miter;stroke-opacity:1"
       d="M 58.208333,30.427083 V 7.9375 l 17.197918,3e-7 2.645833,2.6458327 v 19.84375 h -3.96875 V 11.90625 h -3.96875 v 18.520833 h -3.96875 V 11.90625 h -3.96875 v 18.520833 z"
       id="path842"
       sodipodi:nodetypes="cccccccccccccc"
       inkscape:export-xdpi="96"
       inkscape:export-ydpi="96" />
    <path
       id="path844"
       style="fill:#666666;fill-opacity:1;stroke:none;stroke-width:0.26458300000000001px;stroke-linecap:butt;stroke-linejoin:miter;stroke-opacity:1"
       d="m 83.343749,10.583334 v 17.575892 l 2.645834,2.267857 h 10.583334 v -3.96875 H 88.635416 L 87.312499,25.135417 V 23.8125 l 1.322917,-1.322917 h 8.220982 L 99.218749,19.84375 V 10.772321 L 96.572916,7.9375 H 86.084079 Z m 3.96875,2.645833 1.417413,-1.322917 h 5.197171 l 1.322916,1.417411 v 3.779762 l -1.322916,1.41741 c -2.204861,0 -4.409722,0 -6.614583,0 z"
       sodipodi:nodetypes="ccccccccccccccccccccccc"
       inkscape:export-xdpi="96"
       inkscape:export-ydpi="96" />
    <path
       id="path849"
       style="fill:#e00000;fill-opacity:1;stroke:none;stroke-width:0.99999899999999997px;stroke-linecap:butt;stroke-linejoin:miter;stroke-opacity:1"
       d="m 65,130 10e-7,85 h 20 l 10e-7,-20 L 105,215 h 20 l 0,-15 -15,-15 h 15 l 0,-55 z m 20,20 h 20 l 0,15 H 85.000001 Z"
       transform="scale(0.26458333)"
       sodipodi:nodetypes="cccccccccccccccc"
       inkscape:export-xdpi="96"
       inkscape:export-ydpi="96" />
    <path
       style="fill:#666666;fill-opacity:1;stroke:none;stroke-width:0.26458300000000001px;stroke-linecap:butt;stroke-linejoin:miter;stroke-opacity:1"
       d="M 58.208333,56.885416 V 34.395833 l 9.260417,2e-6 2.645833,2.645832 v 19.84375 h -3.96875 V 38.364584 l -3.968749,-10e-7 v 18.520833 z"
       id="path856"
       sodipodi:nodetypes="cccccccccc"
       inkscape:export-xdpi="96"
       inkscape:export-ydpi="96" />
    <path
       id="path1080"
       style="fill:#666666;fill-opacity:1;stroke:none;stroke-width:0.26458300000000001px;stroke-linecap:butt;stroke-linejoin:miter;stroke-opacity:1"
       d="m 75.406257,34.395834 v 22.489583 h 3.96875 V 51.59375 l 5.291667,5.291667 h 3.96875 v -3.96875 l -6.614584,-6.614584 6.614584,-7.9375 v -3.96875 h -3.96875 l -5.291667,6.614584 v -6.614584 z"
       sodipodi:nodetypes="cccccccccccccc"
       inkscape:export-xdpi="96"
       inkscape:export-ydpi="96" />
    <path
       style="fill:#666666;fill-opacity:1;stroke:none;stroke-width:0.26458300000000001px;stroke-linecap:butt;stroke-linejoin:miter;stroke-opacity:1"
       d="M 93.927089,56.885416 V 34.395833 h 10.583331 l 2.64583,2.645833 v 1.322917 h -9.260417 v 18.520833 z"
       id="path1082"
       inkscape:export-xdpi="96"
       inkscape:export-ydpi="96" />
    <path
       id="path1084"
       style="fill:#666666;fill-opacity:1;stroke:none;stroke-width:0.26458300000000001px;stroke-linecap:butt;stroke-linejoin:miter;stroke-opacity:1"
       d="m 50.387623,34.395834 h -11.90625 v 3.96875 h 9.260417 l 1.322917,1.322917 v 1.322917 l -7.86257,0.07286 -2.720764,2.57297 v 10.583336 l 2.448089,2.645833 h 9.341371 l 2.762623,-2.645833 V 37.041668 Z m -1.439706,10.583333 c 0.221914,2.195582 0.11679,4.410542 0.11679,6.614584 l -1.322917,1.322916 h -3.96875 l -1.322917,-1.322916 v -5.291667 l 1.322917,-1.322917 z"
       sodipodi:nodetypes="cccccccccccccccccccccc"
       inkscape:export-xdpi="96"
       inkscape:export-ydpi="96" />
  </g>
</svg>
